# xmcd
#
# Track frame offsets: 
#        150
#        13646
#        25613
#        34690
#        44446
#        67992
#        82309
#        94214
#        106297
#        119334
#        131396
#        149708
#        164096
#        174623
#        185020
#        200447
#        211966
#        226097
#        245233
#        262092
#        273603
#        284190
#        294510
#        312363
#
# Disc length: 4447 seconds
#
# Revision: 1
# Processed by: cddbd v1.5.2PL0 Copyright (c) Steve Scherf et al.
# Submitted via: ExactAudioCopy v0.99pb3
#
DISCID=7c115d18
DTITLE=Country Beat Jiriho Brabce - Zlate hity CD2
DYEAR=2005
DGENRE=Country
TTITLE0=One More Country Song
TTITLE1=Slunecni spar
TTITLE2=Hospoda blizko mlyna
TTITLE3=Az te nahodou potkam
TTITLE4=Zatim, co ty spis
TTITLE5=Galveston
TTITLE6=Svatebni pruvod
TTITLE7=Vem das tu zenskou
TTITLE8=Tam, kde tece Mississippi
TTITLE9=Bidnej chlap
TTITLE10=Eighteen Wheeler
TTITLE11=Svatebni obrad
TTITLE12=Ja smyl spinu rosou pruhlednou
TTITLE13=Kver a flaska ginu
TTITLE14=Vilem pece housky
TTITLE15=Nejkrasnejsi divce
TTITLE16=Rodicovske sdruzeni
TTITLE17=Vic nez pritel
TTITLE18=Becko z okresniho mesta
TTITLE19=Slecna Sen
TTITLE20=Stryc Teddy
TTITLE21=V udoli blizko drahy
TTITLE22=Tobe tenkrat nejel vlak
TTITLE23=Kapka rosy
EXTD=
EXTT0=
EXTT1=
EXTT2=
EXTT3=
EXTT4=
EXTT5=
EXTT6=
EXTT7=
EXTT8=
EXTT9=
EXTT10=
EXTT11=
EXTT12=
EXTT13=
EXTT14=
EXTT15=
EXTT16=
EXTT17=
EXTT18=
EXTT19=
EXTT20=
EXTT21=
EXTT22=
EXTT23=
PLAYORDER=
